
<svg id="activeden" viewBox="0 0 356.461 356.461" >
<g>
	<g>
		<path d="M119.194,149.078c-1.703,0-2.551,1.08-2.551,3.222c0,1.474,0,2.529,0,3.146c-0.933-1.734-2.44-3.19-4.512-4.353
			c-2.07-1.156-4.222-1.741-6.45-1.741c-4.769,0-8.604,2.167-11.498,6.501c-2.63,3.933-3.946,8.623-3.946,14.075
			c0,5.141,1.182,9.429,3.552,12.868c2.682,3.843,6.345,5.771,10.994,5.771c2.814,0,5.025-0.321,6.633-0.947
			c1.968-0.714,3.73-2.053,5.297-4.015c0,0.625,0.022,1.577,0.066,2.847c0.044,1.271,0.87,1.912,2.479,1.912
			c1.61,0,2.411-0.673,2.411-2.016v-34.183C121.669,150.106,120.843,149.078,119.194,149.078z M113.856,179.577
			c-2.082,3.218-4.823,4.832-8.233,4.832c-3.143,0-5.643-1.569-7.5-4.696c-1.637-2.814-2.457-6.252-2.457-10.326
			c0-4.061,0.82-7.498,2.457-10.319c1.858-3.083,4.359-4.626,7.5-4.626c3.495,0,6.263,1.524,8.3,4.562
			c1.813,2.727,2.719,6.075,2.719,10.053C116.643,173.168,115.714,176.675,113.856,179.577z"/>
		<path d="M143.723,154.574c1.386,0,2.757,0.394,4.121,1.175c1.364,0.787,2.246,1.175,2.647,1.175c0.806,0,1.477-0.279,2.014-0.838
			c0.535-0.56,0.801-1.195,0.801-1.906c0-0.896-0.377-1.659-1.141-2.288c-0.933-0.801-2.3-1.449-4.086-1.938
			c-1.519-0.407-2.859-0.604-4.022-0.604c-5.316,0-9.542,2.052-12.667,6.163c-2.859,3.755-4.29,8.293-4.29,13.611
			c0,5.313,1.408,9.781,4.223,13.4c3.175,4.067,7.463,6.1,12.871,6.1c3.353,0,5.897-0.716,7.639-2.148
			c0.851-0.712,1.274-1.562,1.274-2.545c0-1.562-0.829-2.346-2.478-2.346c-0.315,0-1.296,0.28-2.948,0.84
			c-1.656,0.56-3.062,0.838-4.227,0.838c-3.531,0-6.298-1.43-8.311-4.286c-1.787-2.549-2.678-5.72-2.678-9.52
			c0-3.979,0.962-7.372,2.882-10.187C137.443,156.144,140.237,154.574,143.723,154.574z"/>
		<path d="M170.466,150.69c-1.697,0-2.794,0-3.285,0v-10.174c0-1.666-0.839-2.497-2.513-2.497c-1.678,0-2.514,0.833-2.514,2.497
			v10.174h-3.485c-1.519-0.043-2.279,0.693-2.279,2.211c0,1.519,0.806,2.281,2.412,2.281h3.352v30.161
			c0,1.659,0.817,2.478,2.447,2.478c1.722,0,2.58-0.818,2.58-2.478v-30.161h3.418c1.655,0,2.48-0.756,2.48-2.25
			C173.079,151.441,172.207,150.69,170.466,150.69z"/>
		<path d="M180.89,149.35c-1.634,0-2.449,0.826-2.449,2.478v33.444c0,1.704,0.838,2.546,2.512,2.546
			c1.675,0,2.515-0.846,2.515-2.546v-33.444C183.467,150.177,182.607,149.35,180.89,149.35z"/>
		<path d="M180.92,138.02c-2.28,0-3.419,1.074-3.419,3.222c0,0.935,0.302,1.772,0.905,2.51c0.604,0.737,1.419,1.106,2.449,1.106
			c2.413,0,3.619-1.074,3.619-3.216c0-0.94-0.325-1.779-0.97-2.517C182.853,138.387,181.993,138.02,180.92,138.02z"/>
		<path d="M215.029,150.489c-1.349,0-2.336,0.959-2.962,2.879l-8.916,25.965l-8.478-25.895c-0.586-1.963-1.591-2.949-3.027-2.949
			c-1.388,0-2.083,0.769-2.083,2.3c0,0.375,0.069,0.769,0.201,1.188l10.657,31.768c0.494,1.385,1.383,2.076,2.679,2.076
			c1.476,0,2.456-0.691,2.948-2.076l10.928-31.836c0.134-0.356,0.199-0.711,0.199-1.068
			C217.181,151.276,216.463,150.489,215.029,150.489z"/>
		<path d="M251.034,166.036c0-5.141-1.39-9.214-4.159-12.232c-2.771-3.012-6.545-4.523-11.326-4.523
			c-5.054,0-9.071,2.058-12.064,6.164c-2.771,3.711-4.156,8.229-4.156,13.542c0,5.363,1.41,9.854,4.224,13.472
			c3.221,4.111,7.574,6.171,13.071,6.171c5.99,0,10.567-2.015,13.739-6.038c0.313-0.356,0.47-0.803,0.47-1.334
			c0-0.623-0.248-1.206-0.74-1.749c-0.496-0.532-1.074-0.799-1.745-0.799c-0.542,0-1.412,0.488-2.623,1.473
			c-1.66,1.296-2.917,2.167-3.76,2.613c-1.75,0.983-3.54,1.476-5.379,1.476c-3.05,0-5.75-1.342-8.1-4.023
			c-2.35-2.68-3.525-5.604-3.525-8.776h24.324C250.448,171.471,251.034,169.659,251.034,166.036z M224.958,166.375
			c0.089-3.889,1.232-6.989,3.426-9.316c2.021-2.059,4.443-3.082,7.266-3.082c2.823,0,5.202,1.023,7.126,3.082
			c2.155,2.275,3.233,5.382,3.233,9.316H224.958z"/>
		<path d="M284.312,138.02c-1.72,0-2.582,0.877-2.582,2.625v14.939c-3.253-4.156-6.887-6.233-10.896-6.233
			c-4.813,0-8.669,2.103-11.568,6.311c-2.629,3.806-3.945,8.419-3.945,13.827c0,5.243,1.271,9.671,3.812,13.296
			c2.849,3.982,6.751,5.977,11.696,5.977c4.948,0,8.58-1.829,10.899-5.495v3.151c0,1.562,0.86,2.344,2.582,2.344
			c1.629,0,2.449-0.755,2.449-2.279v-45.843C286.759,138.898,285.942,138.02,284.312,138.02z M279.313,179.244
			c-2.1,3.043-4.913,4.555-8.441,4.555c-3.219,0-5.766-1.495-7.642-4.488c-1.702-2.68-2.547-5.99-2.547-9.924
			c0-4.016,0.871-7.434,2.614-10.256c1.874-3.126,4.402-4.689,7.574-4.689c3.528,0,6.317,1.524,8.378,4.562
			c1.876,2.771,2.814,6.164,2.814,10.187C282.066,173.124,281.148,176.472,279.313,179.244z"/>
		<path d="M324.021,166.036c0-5.141-1.386-9.214-4.152-12.232c-2.771-3.012-6.549-4.523-11.328-4.523
			c-5.054,0-9.071,2.058-12.066,6.164c-2.767,3.711-4.152,8.229-4.152,13.542c0,5.363,1.407,9.854,4.224,13.472
			c3.215,4.111,7.572,6.171,13.067,6.171c5.989,0,10.569-2.015,13.741-6.038c0.312-0.356,0.466-0.803,0.466-1.334
			c0-0.623-0.242-1.206-0.736-1.749c-0.499-0.532-1.076-0.799-1.75-0.799c-0.537,0-1.41,0.488-2.62,1.473
			c-1.66,1.296-2.911,2.167-3.766,2.613c-1.744,0.983-3.538,1.476-5.373,1.476c-3.05,0-5.744-1.342-8.096-4.023
			c-2.356-2.68-3.528-5.604-3.528-8.776h24.327C323.437,171.471,324.021,169.659,324.021,166.036z M297.949,166.375
			c0.086-3.889,1.233-6.989,3.429-9.316c2.016-2.059,4.435-3.082,7.265-3.082c2.824,0,5.196,1.023,7.125,3.082
			c2.15,2.275,3.229,5.382,3.229,9.316H297.949z"/>
		<path d="M352.585,152.637c-2.359-2.192-5.214-3.286-8.553-3.286c-4.725,0-8.291,1.945-10.695,5.833c0.04-0.496,0.04-1.633,0-3.425
			c-0.047-1.601-0.907-2.408-2.584-2.408c-1.626,0-2.445,0.756-2.445,2.281v33.711c0,1.658,0.815,2.478,2.445,2.478
			c1.724,0,2.584-0.819,2.584-2.478v-19.769c0-3.489,1.063-6.26,3.204-8.312c1.87-1.837,4.118-2.752,6.746-2.752
			c2.23,0,4.116,0.693,5.677,2.078c1.646,1.564,2.472,3.642,2.472,6.233v22.521c0,1.66,0.826,2.478,2.479,2.478
			c1.698,0,2.547-0.82,2.547-2.478V162.29C356.461,158.222,355.171,155,352.585,152.637z"/>
		<path d="M84.278,188.462c-0.88-0.505-1.983-0.431-2.784,0.203c-3.886,3.088-7.565,5.273-11.022,6.575v-0.118v-54.865
			c0-2.713-2.202-4.918-4.918-4.918H4.916c-2.717,0-4.916,2.205-4.916,4.918v60.642c0,2.713,2.198,4.919,4.916,4.919h18.453h0.56
			c2.533,5.758,6.705,10.541,13.922,13.147c12.671,4.571,22.839,1.023,29.137-2.752c10.692-6.418,17.408-17.557,18.517-25.247
			C85.651,189.963,85.161,188.964,84.278,188.462z M64.427,211.943c-5.374,3.232-14.05,6.254-24.885,2.346
			c-2.835-1.028-5.075-2.479-6.879-4.259c-5.925-6.043-6.89-15.771-7.891-25.934c-1.015-10.293-1.974-20.016-8.4-25.722
			c-4.032-3.578-8.049-6.005-11.96-7.212v-5.663c0.671,0.051,1.338,0.127,2.002,0.229c10.818,1.665,17.415,6.52,24.322,17.888
			c0.947,1.557,1.932,3.297,3.009,5.312c0.738,1.385,1.478,2.828,2.231,4.341c1.354,2.72,2.805,5.78,4.568,9.626
			c5.682,12.417,13.375,18.71,22.858,18.71c2.281,0,4.643-0.389,7.073-1.146v0.029c2.545-0.788,5.17-1.987,7.86-3.588
			C75.658,202.251,70.829,208.105,64.427,211.943z"/>
		<path d="M56.055,202.888c-4.051-1.589-8.913-4.952-11.35-10.01c-0.887,4.742,3.013,10.626-4.502,7.996
			c-7.702-2.696-6.532,0.769-6.757,4.742c1.319,2.307,3.244,4.048,6.047,5.529c8.118,4.275,15.293,3.134,19.889,1.177
			c6.066-2.582,10.861-6.761,13.405-11.064c-1.941,0.865-3.815,1.512-5.608,1.931C63.061,204.272,59.336,204.178,56.055,202.888z"/>
	</g>
</g>
</svg>
